<svg width="48" height="48" viewBox="0 0 48 48" fill="none" xmlns="http://www.w3.org/2000/svg">
<g clip-path="url(#clip0_51_1264)">
<path d="M48 24C48 24.6379 47.9747 25.2695 47.9274 25.8947C47.7253 28.4495 47.1284 30.8905 46.1905 33.1579C42.5905 41.8705 34.0105 48 24 48C13.9895 48 5.40947 41.8705 1.80947 33.1579C0.871579 30.8905 0.274737 28.4495 0.0726316 25.8947C0.0252632 25.2695 0 24.6379 0 24C0 22.1558 0.208421 20.3589 0.603158 18.6316C3.04105 7.96105 12.5937 0 24 0C35.4063 0 44.9589 7.96105 47.3968 18.6316C47.7916 20.3589 48 22.1558 48 24Z" fill="#AFB29F"/>
<path d="M46.1909 33.1578C42.5909 41.8705 34.0109 47.9999 24.0003 47.9999C13.9898 47.9999 5.40981 41.8705 1.80981 33.1578H46.1909Z" fill="#6D746C"/>
<path d="M47.9273 25.8948C47.7251 28.4495 47.1283 30.8906 46.1904 33.1579H1.80935C0.871457 30.8906 0.274615 28.4495 0.0725098 25.8948H47.9273Z" fill="#F7F4E3"/>
<path d="M48 24C48 24.6378 47.9747 25.2694 47.9274 25.8947H0.0726316C0.0252632 25.2694 0 24.6378 0 24C0 22.1557 0.208421 20.3589 0.603158 18.6315H47.3968C47.7916 20.3589 48 22.1557 48 24Z" fill="#B99A86"/>
<path d="M25.2635 7.92631L27.3793 7.91052L27.3414 16.2979L26.0182 17.8263L25.2224 16.8189L25.2635 7.92631Z" fill="#DAE1CD"/>
<path d="M20.9971 6.63157L23.1129 6.61578L23.075 15.0032L21.7518 16.5316L20.9561 15.5242L20.9971 6.63157Z" fill="#DAE1CD"/>
<path d="M25.2125 18.6253L24.4388 19.6453L23.1094 18.1295L23.1725 5.22001L25.2788 5.20422L25.2125 18.6284V18.6253Z" fill="#E7DABA"/>
<path d="M24.1646 14.6685C20.293 14.6685 17.1541 17.8074 17.1541 21.679V34.3106C17.1509 37.5095 19.292 40.2095 22.2225 41.0464C22.8762 41.2327 23.3341 41.8232 23.3341 42.5053C23.3341 42.96 23.7004 43.3264 24.1551 43.3264C24.6098 43.3264 24.9762 42.96 24.9762 42.5053C24.9762 41.8232 25.4341 41.2327 26.0877 41.0464C29.0183 40.2064 31.1625 37.5064 31.1656 34.3074V21.6758C31.1688 17.8042 28.033 14.6685 24.1614 14.6685H24.1646Z" fill="#FEFEF2"/>
<path d="M24.1675 14.6685C23.8896 14.6685 23.618 14.6842 23.3496 14.7158C26.8327 15.1232 29.5359 18.0821 29.5327 21.6727V34.3042C29.5296 37.5032 27.3822 40.2032 24.4517 41.0432C23.798 41.2295 23.3401 41.82 23.3401 42.5021C23.3401 42.5021 23.3401 42.5116 23.3401 42.5179C23.3464 42.9632 23.7127 43.3264 24.1611 43.3264C24.6159 43.3264 24.9822 42.9569 24.9822 42.5053C24.9822 41.8232 25.4401 41.2327 26.0938 41.0464C29.0243 40.2064 31.1685 37.5064 31.1717 34.3074V21.6758C31.178 17.8042 28.039 14.6685 24.1675 14.6685Z" fill="#D4CDBB"/>
<path d="M27.3411 15.72C27.1011 15.72 26.9085 15.5242 26.9085 15.2842L26.9432 8.34947L25.2695 8.3621H25.2664C25.0264 8.3621 24.8337 8.16947 24.8306 7.92947C24.8306 7.68947 25.0232 7.49368 25.2632 7.49052L27.379 7.47473H27.3821C27.4958 7.47473 27.6064 7.51894 27.6885 7.60105C27.7706 7.68315 27.8179 7.79368 27.8148 7.91052L27.7769 15.2874C27.7769 15.5274 27.5811 15.72 27.3411 15.72Z" fill="black"/>
<path d="M20.9844 9.26841C20.7444 9.26841 20.5518 9.07262 20.5518 8.83262L20.5612 6.62841C20.5612 6.39157 20.7539 6.19894 20.9939 6.19578L23.1097 6.17999H23.1128C23.3528 6.17999 23.5454 6.37262 23.5486 6.61262C23.5486 6.85262 23.356 7.04841 23.116 7.05157L21.4297 7.0642L21.4202 8.83894C21.4202 9.07894 21.2244 9.27157 20.9844 9.27157V9.26841Z" fill="black"/>
<path d="M20.9588 15.7169C20.7188 15.7169 20.523 15.5211 20.5262 15.2811L20.5483 10.5064C20.5483 10.2664 20.7346 10.0706 20.9841 10.0738C21.2241 10.0738 21.4198 10.2696 21.4167 10.5096L21.3946 15.2843C21.3946 15.5243 21.1988 15.7169 20.9588 15.7169Z" fill="black"/>
<path d="M23.1091 15.139C22.8691 15.139 22.6765 14.94 22.6765 14.7L22.7397 5.21685C22.7397 4.98001 22.9323 4.78738 23.1723 4.78422L25.2786 4.76843H25.2818C25.3986 4.76843 25.506 4.81264 25.5881 4.89475C25.6702 4.97685 25.7176 5.08738 25.7144 5.20422L25.6481 14.6305C25.6481 14.8705 25.4523 15.0632 25.2123 15.0632C24.9723 15.0632 24.7797 14.8642 24.7797 14.6242L24.8428 5.64001L23.6049 5.64948L23.5449 14.7063C23.5449 14.9463 23.3491 15.139 23.1091 15.139Z" fill="black"/>
<path d="M24.1551 43.759C23.8204 43.759 23.5077 43.6295 23.2709 43.3927C23.0341 43.1558 22.9014 42.84 22.9014 42.5053C22.9014 42.019 22.5825 41.6021 22.1056 41.4632C18.932 40.5537 16.7151 37.6137 16.7183 34.3074V21.6758C16.7214 17.5705 20.0625 14.2327 24.1677 14.2295C26.1541 14.2295 28.0235 15.0032 29.4288 16.4084C30.8341 17.8137 31.6077 19.6832 31.6077 21.6726V34.3042C31.6046 34.8032 31.5541 35.3053 31.453 35.7948C31.4056 36.0284 31.1783 36.1832 30.9414 36.1327C30.7046 36.0853 30.553 35.8548 30.6035 35.6211C30.692 35.1884 30.7362 34.7463 30.7362 34.3042V21.6726C30.7393 19.9169 30.0572 18.2653 28.8162 17.0242C27.5751 15.7832 25.9267 15.1011 24.1709 15.1011C20.5456 15.1011 17.5962 18.0537 17.5962 21.6758V34.3074C17.593 37.2253 19.5477 39.8242 22.3519 40.6263C23.1919 40.8663 23.7793 41.6369 23.7793 42.5021C23.7793 42.6063 23.8204 42.7042 23.893 42.7769C23.9656 42.8495 24.0698 42.8905 24.1646 42.8905C24.3762 42.8905 24.5498 42.7169 24.5498 42.5053C24.5498 41.64 25.1372 40.8695 25.9772 40.6263C27.7772 40.1116 29.2772 38.8421 30.092 37.1495C30.1962 36.9316 30.4551 36.8432 30.673 36.9474C30.8909 37.0516 30.9793 37.3105 30.8751 37.5284C29.953 39.4453 28.2541 40.8821 26.2141 41.4663C25.7372 41.6021 25.4151 42.0221 25.4151 42.5084C25.4151 43.2 24.853 43.7653 24.1583 43.7653L24.1551 43.759Z" fill="black"/>
<path d="M17.1541 22.9642C16.9141 22.9642 16.7183 22.7684 16.7183 22.5284C16.7183 22.2884 16.9141 22.0926 17.1541 22.0926H23.6025C23.8425 22.0926 24.0383 22.2852 24.0383 22.5252C24.0383 22.7652 23.8425 22.961 23.6025 22.961H17.1541V22.9642Z" fill="black"/>
<path d="M21.0029 33.2999C20.7629 33.2999 20.5671 33.1041 20.5671 32.8641C20.5671 32.6241 20.7629 32.4283 21.0029 32.4283H31.1713C31.4113 32.4283 31.6071 32.621 31.6071 32.861C31.6071 33.101 31.4113 33.2968 31.1713 33.2968H21.0029V33.2999Z" fill="black"/>
<path d="M24.843 35.7821C24.603 35.7821 24.4072 35.5863 24.4072 35.3463C24.4072 35.1063 24.603 34.9105 24.843 34.9105H28.5662C28.8062 34.9105 29.002 35.1032 29.002 35.3432C29.002 35.5832 28.8062 35.7789 28.5662 35.7789H24.843V35.7821Z" fill="black"/>
<path d="M11.2452 7.56315C11.3462 7.55684 11.4694 7.54736 11.5704 7.56631C12.0346 7.6642 12.1388 8.46631 12.3567 8.81368L12.3852 8.85789C12.8241 9.07894 13.5315 9.05052 13.7841 9.52736C13.8315 9.61578 13.8473 9.70105 13.8094 9.79578C13.6452 10.1905 12.761 10.3547 12.3852 10.5126C12.1104 10.9389 12.0883 11.4474 11.7157 11.8168C11.5957 11.8895 11.5515 11.921 11.4094 11.9305C10.942 11.7568 10.7873 10.9074 10.5725 10.4937C10.102 10.2663 9.50516 10.2474 9.20832 9.75157C9.20516 9.70105 9.18621 9.64105 9.20832 9.59368C9.40727 9.17683 10.1746 8.99368 10.582 8.8421C10.8346 8.40631 10.9073 7.95473 11.2515 7.56315H11.2452Z" fill="#FCFCFA"/>
<path d="M6.21776 19.5599C6.45145 19.5473 6.58092 19.6673 6.76092 19.7999C6.86513 20.0841 6.9725 20.362 7.09881 20.6368C7.42724 20.7536 7.71145 20.7789 8.00513 20.9841C8.13145 21.0726 8.17566 21.142 8.20092 21.2904C8.04303 21.7262 7.46829 21.8115 7.10513 22.001L7.06092 22.0231C6.87145 22.4273 6.78618 22.7778 6.39776 23.0273C6.32197 23.0399 6.26829 23.0431 6.19881 23.0083C5.87987 22.8473 5.77881 22.2662 5.69039 21.9536C5.37776 21.862 5.0146 21.7862 4.73671 21.6126C4.61671 21.5368 4.55355 21.4641 4.52197 21.3252C4.54724 21.0568 4.72408 20.9431 4.91671 20.7789C5.15355 20.7568 5.38408 20.7062 5.61776 20.6589C5.75987 20.2547 5.85145 19.8189 6.21145 19.5568L6.21776 19.5599Z" fill="#FCFCFA"/>
<path d="M40.2161 13.8948C40.4497 13.8821 40.5792 14.0021 40.7592 14.1348C40.8634 14.419 40.9708 14.6969 41.0971 14.9716C41.4255 15.0884 41.7097 15.1137 42.0034 15.319C42.1297 15.4074 42.1739 15.4769 42.1992 15.6253C42.0413 16.0611 41.4666 16.1463 41.1034 16.3358L41.0592 16.3579C40.8697 16.7621 40.7845 17.1127 40.3961 17.3621C40.3203 17.3748 40.2666 17.3779 40.1971 17.3432C39.8782 17.1821 39.7771 16.6011 39.6887 16.2884C39.3761 16.1969 39.0129 16.1211 38.735 15.9474C38.615 15.8716 38.5518 15.799 38.5203 15.66C38.5455 15.3916 38.7224 15.2779 38.915 15.1137C39.1518 15.0916 39.3824 15.0411 39.6161 14.9937C39.7582 14.5895 39.8497 14.1537 40.2097 13.8916L40.2161 13.8948Z" fill="#FCFCFA"/>
</g>
<defs>
<clipPath id="clip0_51_1264">
<rect width="48" height="48" fill="white"/>
</clipPath>
</defs>
</svg>
